<svg width="108" height="55" viewBox="0 0 108 55" fill="none" xmlns="http://www.w3.org/2000/svg">
<path id="Vector" d="M17.7765 54.0174C23.3882 54.0174 27.9862 52.2434 30.9912 49.347C33.2721 47.1023 34.5755 44.0611 34.5755 40.5493C34.5755 37.3633 33.4169 34.5393 31.2085 32.367C29.0362 30.1947 25.9226 28.6017 22.0125 27.8414L15.568 26.5743C12.8889 26.0674 11.3683 24.7278 11.3683 22.8814C11.3683 20.4557 13.7216 18.7902 17.4869 18.7902C19.8402 18.7902 21.8314 19.5505 23.171 20.8901C24.0037 21.7952 24.583 22.99 24.764 24.3296L34.0686 22.2297C33.8152 19.5505 32.548 17.1972 30.6292 15.2784C27.6242 12.2734 22.9176 10.3545 17.4145 10.3545C12.3096 10.3545 8.03743 12.02 5.10485 14.6991C2.60672 17.0524 1.15853 20.2384 1.15853 23.7503C1.15853 26.8639 2.17226 29.4344 4.16352 31.4619C6.19099 33.4894 9.08737 34.9738 12.9613 35.9151L19.3333 37.4357C22.5193 38.196 23.9313 39.3545 23.9313 41.4544C23.9313 44.0611 21.578 45.5455 17.7403 45.5455C14.9887 45.5455 12.7078 44.6404 11.2959 43.1198C10.2821 42.1061 9.70285 40.7665 9.63044 39.2821L0.0723877 41.382C0.325821 44.2422 1.6654 46.7403 3.65666 48.7678C6.87888 52.0262 11.9837 54.0174 17.7765 54.0174ZM88.4119 54.0174C94.603 54.0174 99.382 51.7728 102.64 48.5867C105.247 46.0886 106.84 43.156 107.673 40.1148L97.8976 36.8564C97.4631 38.377 96.6304 39.9338 95.2908 41.201C93.6978 42.7216 91.5256 43.8077 88.4119 43.8077C85.5518 43.8077 82.8726 42.7216 80.9538 40.8027C79.0349 38.7753 77.8402 35.8427 77.8402 32.186C77.8402 28.4207 78.9987 25.5605 80.9538 23.5693C82.8726 21.6504 85.4794 20.6367 88.3033 20.6367C91.3083 20.6367 93.4082 21.6504 94.9288 23.1348C96.196 24.402 96.9201 25.995 97.4269 27.588L107.383 24.2209C106.623 21.2884 105.03 18.3558 102.713 15.9301C99.3458 12.6716 94.4943 10.3183 88.0499 10.3183C82.1123 10.3183 76.754 12.563 72.9163 16.4369C69.0786 20.3832 66.7253 25.814 66.7253 32.186C66.7253 38.558 69.151 43.9887 73.0973 47.9351C76.9712 51.7728 82.402 54.0174 88.4119 54.0174ZM54.5967 54.0174C58.9413 54.0174 62.0549 52.6779 63.3945 51.5193V42.4681C62.3807 43.2284 60.3895 44.1336 57.7827 44.1336C55.9363 44.1336 54.5967 43.6991 53.583 42.794C52.7503 41.9613 52.3158 40.5131 52.3158 38.5942V0.289612H41.2734V11.5855H63.3583V22.3021H41.2734V41.3096C41.2734 45.1473 42.4319 48.2609 44.5318 50.4332C46.9213 52.7865 50.3246 54.0174 54.5967 54.0174Z" fill="#502C84"/>
</svg>
